<svg xmlns="http://www.w3.org/2000/svg" width="507.733" height="138.857" viewBox="0 0 507.733 138.857">
  <g id="Group_391" data-name="Group 391" transform="translate(0 0)">
    <path id="Path_290" data-name="Path 290" d="M1200.264,83.23c.029-13.644,1.946-26.868,8.125-39.284,8.043-16.163,20.9-26.16,38.424-29.868,17.187-3.638,34.056-2.353,49.97,5.566,12.914,6.428,20.734,17.5,25.4,30.691,8.991,25.41,6.926,50.241-5.957,73.854-6.794,12.452-18.005,19.827-31.538,23.644-18.753,5.289-37.087,4.124-54.483-4.829-16.27-8.372-24.758-22.587-28.241-40.125a90.867,90.867,0,0,1-1.7-19.65m29.721,1.1a76.716,76.716,0,0,0,1.244,13.856c1.568,8.25,3.921,16.344,9.751,22.575,9.433,10.077,21.355,11.03,33.882,7.5,9.367-2.64,14.407-9.991,17.934-18.423,4.181-9.995,4.792-20.612,4.713-31.286-.065-9.064-1.1-17.963-4.693-26.406-5.247-12.341-16-19.612-28.822-19.478-13.932.146-24.612,7.521-29.6,20.406-3.561,9.2-4.379,18.819-4.412,31.26" transform="translate(-1200.243 -12.142)" fill="#222"/>
    <path id="Path_291" data-name="Path 291" d="M1404.409,129.015c-5.059-1.616-6.247-3.222-6.251-8.474-.005-15.831-.041-31.664.009-47.495a31.887,31.887,0,0,0-1.517-9.882c-2.081-6.481-7.47-9.787-14.827-9.365-7.729.444-12.736,4.745-14.5,12.061a58.678,58.678,0,0,0-1.194,13.754c-.025,15.369-.066,30.74.057,46.109.022,2.614-.741,3.383-3.32,3.326-7.048-.155-14.1-.183-21.148.009-2.7.075-3.251-.823-3.237-3.353.106-17.333.057-34.669.046-52a37.108,37.108,0,0,0-1.36-10.957,11.035,11.035,0,0,0-3.3-5.19c-5.194-4.555-11.214-4.513-17.3-2.643-5.74,1.765-8.838,6.086-9.683,11.937a59.021,59.021,0,0,0-.568,8.288c-.053,16.757-.1,33.515.035,50.27.022,2.919-.827,3.737-3.7,3.651-6.813-.2-13.639-.173-20.456,0-2.716.069-3.466-.727-3.461-3.492.064-26.81-.027-53.62-.082-80.429,0-1.039-.009-2.083-.1-3.116-.475-5.29-.486-5.289,4.985-5.289,4.277,0,8.555-.024,12.83,0,5.366.037,7.7,2.045,8.677,7.368.141.763-.1,1.776.821,2.119.957.354,1.515-.564,1.935-1.146,8-11.117,30.423-13.726,43.778-6.473a25.1,25.1,0,0,1,10.988,12.342c1.336-.073,1.589-1.09,2.015-1.826,4.741-8.23,12.18-12.534,21.262-13.872,7.366-1.084,14.761-.75,21.754,2.39,12,5.383,17.478,15.307,17.8,27.8.528,20.326.254,40.673.312,61.009,0,1.042.053,2.138-1.248,2.552a114.877,114.877,0,0,0-20.062.02" transform="translate(-1135.758 6.343)" fill="#222"/>
    <path id="Path_292" data-name="Path 292" d="M1421.29,48.466c1.331-.276,1.681-1.5,2.382-2.333,12.866-15.2,39.121-16.1,51.374-1.743,5.28,6.187,6.4,13.724,6.5,21.434.186,13.633.109,27.27.133,40.907.013,6.587-.053,13.175.041,19.76.027,1.955-.3,2.928-2.6,2.881-6.108-.124-12.226.161-18.331-.018-4.147-.122-6.5-3.047-6.548-7.793-.084-7.4-.024-14.79-.031-22.188q-.013-15.08-.04-30.16c-.015-6.658-2.866-11.7-9.111-14.161-6.667-2.627-12.748-.915-17.879,3.9-3.194,3-4.381,7.036-4.626,11.269-.88,15.24-.19,30.5-.388,45.744-.047,3.7-.061,7.4.022,11.094.039,1.645-.59,2.28-2.211,2.271-7.744-.037-15.488-.062-23.232,0-2.344.018-2.17-1.457-2.167-3.014q.025-12.128,0-24.258c-.056-20.8.28-41.6-.476-62.388-.086-2.348.407-3.317,2.956-3.244,5.08.148,10.17-.066,15.253-.011,5.313.057,8.193,3.065,8.369,8.436.039,1.19-.425,2.514.608,3.613" transform="translate(-1040.218 6.03)" fill="#222"/>
    <path id="Path_293" data-name="Path 293" d="M1451.614,73.021c0-16.178.067-32.358-.062-48.534-.024-2.932.591-4.142,3.8-3.971,5.071.272,10.168.037,15.252.078,5.159.042,7.954,2.768,8.019,7.881.064,5.2-.018,10.4.017,15.6.033,4.836-.823,4.522,4.73,4.542,4.854.018,9.71.091,14.561-.031,2-.049,2.636.648,2.591,2.585q-.155,6.41-.012,12.824c.046,2.07-.627,2.839-2.8,2.775-5.312-.152-10.633.042-15.946-.113-2.454-.071-3.2.809-3.186,3.2.091,13.288.05,26.578.072,39.866a33.992,33.992,0,0,0,.221,3.458c.591,5.687,3.094,8.31,8.824,8.746a62.038,62.038,0,0,0,9.692-.12c1.993-.161,2.718.325,2.667,2.36-.1,4.274-.058,8.551-.023,12.826.011,1.386-.152,2.4-1.836,2.773-10.442,2.335-20.9,4.058-31.479.909-9.987-2.974-14.828-8.991-14.979-19.471-.228-16.059-.06-32.124-.06-48.187Z" transform="translate(-992.788 -5.24)" fill="#222"/>
    <path id="Path_294" data-name="Path 294" d="M1369.176,81.806c0-14.329.069-28.657-.065-42.986-.024-2.643.733-3.335,3.311-3.273,7.045.173,14.1.126,21.147.024,2.076-.029,2.789.537,2.784,2.724q-.106,43.679-.018,87.357c.005,2-.63,2.576-2.581,2.55-7.28-.093-14.564-.133-21.843.018-2.47.053-2.788-.968-2.775-3.082.078-14.444.042-28.889.04-43.333" transform="translate(-1060.846 7.176)" fill="#222"/>
    <path id="Path_295" data-name="Path 295" d="M1368.627,26.8a14.4,14.4,0,0,1,14.645-14.584,14.847,14.847,0,0,1,14.7,14.767A14.457,14.457,0,0,1,1383.1,41.77c-8.684-.02-14.5-6.043-14.472-14.973" transform="translate(-1061.241 -12.084)" fill="#222"/>
    <path id="Path_297" data-name="Path 297" d="M1240.014,106.847c-12.186-10.044-17.8-26.218-7.853-41.745,2.045-3.191,4.5-6.075,6.278-9.484,4.153-7.952,6.219-16.05,3.359-24.888a15.391,15.391,0,0,1-.253-2.014c6.052,4.737,10.383,10.008,13,16.488,4.9,12.125,2.689,23.245-6.177,32.637-6.536,6.926-8.8,14.924-8.363,24.07.069,1.466.009,2.939.009,4.934" transform="translate(-1178.118 1.541)" fill="#222"/>
  </g>
</svg>
