<svg xmlns="http://www.w3.org/2000/svg" width="605.438" height="124.933" viewBox="0 0 605.438 124.933">
  <path id="Path_977" data-name="Path 977" d="M755.672,107.009c-.486,1.214-.862,2.2-1.267,3.162-5.869,13.982-15.908,23.46-30.411,28.091a59.74,59.74,0,0,1-22.16,2.474,57.846,57.846,0,0,1-24.285-6.691c-12.4-6.727-20.62-17.018-25.486-30.127a36.786,36.786,0,0,0-1.5-3.768v37.792H624.475V97.762h-.122c-.809,2.53-1.533,5.091-2.443,7.583a50.411,50.411,0,0,1-11.545,18.56,46.648,46.648,0,0,1-23.7,12.684,69.747,69.747,0,0,1-15.024,1.453q-67.477-.033-134.957-.013h-1.524V61.608c-.11-.027-.219-.051-.329-.075q-12.44,38.221-24.895,76.5h-.962c-6.838,0-13.677-.011-20.515.018a1.045,1.045,0,0,1-1.2-.876q-11.7-35.639-23.443-71.265c-.557-1.692-1.108-3.385-1.67-5.077a1.4,1.4,0,0,0-.6-.794v77.93H337.084V18.932h36.732Q386.53,59.859,399.278,100.9l.307,0c.151-.387.334-.77.451-1.167q7.645-26.132,15.283-52.26,4.036-13.807,8.052-27.617a1.136,1.136,0,0,1,1.316-1.008q74.386.03,148.772.038A55.722,55.722,0,0,1,600.3,25.312a46.474,46.474,0,0,1,21.176,23.726c.991,2.362,1.7,4.845,2.532,7.269a1.3,1.3,0,0,0,.436.685V18.938h26.089V56.978c.071.015.144.029.216.047.3-.907.6-1.811.913-2.715a57.193,57.193,0,0,1,13.772-22.439,51.837,51.837,0,0,1,24.252-13.73c13.406-3.383,26.673-3.023,39.541,2.37A45.19,45.19,0,0,1,754.095,45.18a1.714,1.714,0,0,0,.473.708V18.936h25.97c.018.4.046.728.046,1.062q0,35.467.024,70.933c.007,3.908.179,7.83.542,11.718a18.037,18.037,0,0,0,3.761,9.86,16.357,16.357,0,0,0,9.905,5.624,41.142,41.142,0,0,0,17.266-.146c7.021-1.546,10.8-6.181,12.162-13.051a66.194,66.194,0,0,0,.973-12.916q.03-35.828.009-71.654V18.956h25.981v15.3c.259-.173.418-.225.495-.338,5.372-7.717,12.916-12.357,21.691-15.2a58.232,58.232,0,0,1,21.633-2.565A62.8,62.8,0,0,1,917,20.968c8.45,3.731,14.991,9.473,18.655,18.131a36.962,36.962,0,0,1,2.817,15.141H913.356c-.177-1.183-.3-2.406-.546-3.6-1.418-7.006-5.7-11.313-12.547-13.091a37.04,37.04,0,0,0-17.025-.522,16.226,16.226,0,0,0-7.755,3.826A12.574,12.574,0,0,0,872.254,54a8.582,8.582,0,0,0,4.049,4.493,46.081,46.081,0,0,0,11.315,4.283c8.4,2.262,16.828,4.389,25.227,6.641a52.612,52.612,0,0,1,15.418,6.674c7.861,5.154,12.766,12.237,13.923,21.682,1.285,10.493-1.073,20-8.067,28.1-5.106,5.911-11.694,9.557-19.051,11.906a69.115,69.115,0,0,1-17.9,3.008,73.316,73.316,0,0,1-24.626-2.757c-7.621-2.278-14.473-5.915-19.993-11.762a39.355,39.355,0,0,1-3.249-3.989c-1-1.387-1.851-2.881-2.828-4.421-.148.252-.307.486-.427.738-4.858,10.073-12.89,16.373-23.442,19.614a69.241,69.241,0,0,1-23.716,2.578,63.7,63.7,0,0,1-17.678-3.01c-13.4-4.535-21.384-13.98-24.8-27.525-.248-.984-.454-1.983-.741-3.242m-1.194-49.583h-1.312q-10,0-20,0c-.546,0-.931-.013-1.112-.712a23.757,23.757,0,0,0-11.528-14.889,28.5,28.5,0,0,0-18.024-3.638,28.175,28.175,0,0,0-16.532,7.085c-5.06,4.606-8.018,10.464-9.825,16.957a63.117,63.117,0,0,0-1.886,22.339,49.686,49.686,0,0,0,3.768,15.722c2.634,6.112,6.532,11.185,12.348,14.608a31.152,31.152,0,0,0,18.126,3.956,24.577,24.577,0,0,0,12.638-4.188,27.916,27.916,0,0,0,10.5-14.011,1.311,1.311,0,0,1,1.477-1.028c6.735.035,13.469.02,20.2.02h1.154Zm-231.551,58.55V40.782h-1.081q-29.8,0-59.589-.02c-.922,0-1.146.263-1.143,1.161.035,7.733.018,15.464.02,23.2,0,1.387,0,1.387,1.4,1.387q26.03,0,52.062,0h1.282V86.718h-1.5q-25.978,0-51.96-.027c-1.061,0-1.316.29-1.311,1.325.04,8.934.024,17.87.024,26.8v1.156Zm26.231-.015c.314.029.48.062.648.062,7.764-.005,15.534.11,23.294-.062a26.278,26.278,0,0,0,14.387-4.673c6.094-4.155,9.506-10.121,11.373-17.1a57.823,57.823,0,0,0,1.617-17.257,58.55,58.55,0,0,0-2.437-15.7c-1.891-5.944-4.995-11.057-10.187-14.7-5.435-3.814-11.641-5.32-18.133-5.577-6.382-.25-12.779-.131-19.168-.175-1.393-.009-1.395-.009-1.395,1.4v73.786M867.493,98.677c.258,1.948.356,3.81.765,5.6,1.767,7.7,6.815,12.321,14.152,14.626a41.128,41.128,0,0,0,19.643.947,24.387,24.387,0,0,0,10.156-3.989c6.358-4.513,7.136-14.67.31-19.53A35.611,35.611,0,0,0,905.5,92.5c-5.84-2.412-12.047-3.64-18.148-5.19a148.986,148.986,0,0,1-19.071-5.73C861.86,79,856.024,75.58,851.692,70c-.026-.029-.117-.009-.336-.027v28.7Z" transform="translate(-337.084 -15.955)" fill="#222"/>
</svg>
