<svg xmlns="http://www.w3.org/2000/svg" width="851.586" height="184.502" viewBox="0 0 851.586 184.502">
  <g id="Group_435" data-name="Group 435" transform="translate(-2046.364 499.905)">
    <path id="Path_257" data-name="Path 257" d="M392.564,201.959,378.9,206.445a9.538,9.538,0,0,1-.8-1.179c-2.163-4.958-6.118-7.817-11.158-9.212a48.549,48.549,0,0,0-24.869-.422,15.848,15.848,0,0,0-5.561,2.638c-3.848,2.877-3.312,7.669.993,9.794,3.68,1.818,7.726,2.313,11.727,2.946,8.176,1.3,16.375,2.5,24.506,4.051a40.259,40.259,0,0,1,8.759,3.072c15.638,7.019,13.737,26.865,2.649,34.342A35.606,35.606,0,0,1,371.9,257.9c-12.333,2.408-24.563,2.136-36.525-1.964-7.05-2.415-12.972-6.481-16.884-13.02-.9-1.5-1.521-3.156-2.443-5.106l14.055-4.44a7.261,7.261,0,0,1,1.057,1.163c3.246,5.986,8.478,9.214,14.942,10.608a48.165,48.165,0,0,0,22.945-.212,21.328,21.328,0,0,0,6.84-3.195c4.261-3.083,3.868-7.9-.659-10.614-3.636-2.178-7.746-2.824-11.857-3.427-7.727-1.13-15.477-2.138-23.173-3.463A34.441,34.441,0,0,1,327.184,219c-11.682-7.616-10.139-24.09-.329-30.757a33.5,33.5,0,0,1,12.73-5.166,71.966,71.966,0,0,1,34.11,1.411,29.288,29.288,0,0,1,13.462,7.981,22.455,22.455,0,0,1,5.407,9.493" transform="translate(2307.275 -639.272)" fill="#222"/>
    <path id="Path_258" data-name="Path 258" d="M112.447,237.727l13.964-4.363a8.256,8.256,0,0,1,.911,1.077c3.228,5.986,8.416,9.263,14.891,10.677a48.78,48.78,0,0,0,23.228-.215,20.717,20.717,0,0,0,6.362-2.924c4.584-3.18,4.274-8.14-.522-10.944-3.574-2.09-7.587-2.715-11.6-3.333-8.46-1.3-16.943-2.5-25.366-4.007a29.855,29.855,0,0,1-11.077-4.807c-11.479-7.581-9.962-23.924-.248-30.589a33.309,33.309,0,0,1,12.715-5.2,71.927,71.927,0,0,1,34.112,1.365,29.379,29.379,0,0,1,13.284,7.746,22.251,22.251,0,0,1,5.637,9.748l-13.644,4.5a16.154,16.154,0,0,1-.874-1.413,15.931,15.931,0,0,0-9.7-8.527,47.407,47.407,0,0,0-20.375-1.93,31.738,31.738,0,0,0-7.163,1.486,14.245,14.245,0,0,0-5.057,2.934c-2.93,2.764-2.366,6.948,1.238,8.684a31.973,31.973,0,0,0,8.288,2.645c7.6,1.331,15.261,2.328,22.887,3.521a54.211,54.211,0,0,1,14.312,4.19c15.864,7.267,13.728,27.171,2.549,34.537a36.417,36.417,0,0,1-13,5.29,71.18,71.18,0,0,1-34.932-1.354,33.488,33.488,0,0,1-15.125-9.022,22.963,22.963,0,0,1-5.7-9.772" transform="translate(2139.192 -639.271)" fill="#222"/>
    <path id="Path_259" data-name="Path 259" d="M48.313,218.734A56.687,56.687,0,0,1,58.591,186c9.378-13.558,21.927-22.71,38.177-26.257,10.112-2.205,20.106-1.647,29.506,3.05,12.372,6.181,19.413,16.353,21.5,29.957,1.862,12.147-.862,23.484-6.915,33.953-9.593,16.594-23.63,27.474-42.652,31.145-12.7,2.452-24.617.267-34.992-7.864-8.078-6.329-12.669-14.8-14.246-24.895-.393-2.5-.524-5.049-.654-6.357m40.012,33.981c3.16-.458,6.378-.668,9.469-1.417A49.179,49.179,0,0,0,134.836,209c.911-9.053-1.21-17.514-7.267-24.519-8.511-9.843-19.606-12.7-31.982-10.312-16.169,3.116-27.688,12.682-35.032,27.241-4.228,8.381-5.756,17.328-3.675,26.614,3.361,15,15.632,24.475,31.445,24.694" transform="translate(2086.247 -658.405)" fill="#222"/>
    <path id="Path_260" data-name="Path 260" d="M101.726,245.6A56.6,56.6,0,0,1,86.5,283.16c-9.641,10.688-21.485,17.7-35.766,20.147-13.657,2.342-26.313-.009-37.161-9.1A37.113,37.113,0,0,1,.549,270.458C-1.444,257.1,2.1,245,9.442,233.985c9.453-14.172,22.536-23.424,39.238-27.1,12.313-2.707,24.243-1.475,35.074,5.473,9.82,6.3,15.552,15.407,17.324,26.952.356,2.318.486,4.673.648,6.289M62.72,213.738c-1.413,0-2.833-.095-4.237.026a32.934,32.934,0,0,0-4.458.712,49.6,49.6,0,0,0-32.681,23.683c-4.624,7.684-6.88,16.055-5.84,25.121,1.32,11.5,7.162,19.854,17.609,24.827A35.756,35.756,0,0,0,55.2,290.717c22.334-3.976,38.641-23.177,40.125-41.933.836-10.581-2.05-19.783-10.019-27.016-6.369-5.781-14.1-8.082-22.589-8.031" transform="translate(2046.363 -619.557)" fill="#222"/>
    <path id="Path_261" data-name="Path 261" d="M285.481,234.961l13.761,4.883c-.59,1.2-.966,2.132-1.471,2.985a30.034,30.034,0,0,1-14.8,12.607c-8.81,3.629-18.027,4.491-27.449,3.695a46.459,46.459,0,0,1-12.114-2.572c-12.021-4.4-19.825-12.669-22.956-25.174a45.421,45.421,0,0,1,.352-24.555,31.765,31.765,0,0,1,20.415-21.536,58.4,58.4,0,0,1,38.267-.849,30.526,30.526,0,0,1,17.971,14.21c.551.957.977,1.986,1.625,3.321l-13.127,4.547c-1.249-1.619-2.187-3.038-3.326-4.274-4.1-4.451-9.405-6.566-15.252-7.2a40.83,40.83,0,0,0-15.428,1.013c-10.694,2.965-16.357,10.395-17.456,21.143a30.683,30.683,0,0,0,.664,11.234,22.438,22.438,0,0,0,14.707,15.951,35.537,35.537,0,0,0,21.138.876,23.783,23.783,0,0,0,14.482-10.3" transform="translate(2227.101 -639.308)" fill="#222"/>
    <path id="Path_262" data-name="Path 262" d="M493.636,251.167c-3.656,0-7.211.02-10.765-.013-1.086-.009-1.406-.8-1.424-1.742-.022-1.212-.005-2.424-.005-4.328-1.26.982-2.03,1.59-2.809,2.189-10.856,8.334-28.2,7.457-37.776-2.62-6.417-6.756-8.361-14.968-7.509-23.991a26.479,26.479,0,0,1,2.678-9.458c4.283-8.523,11.386-13.1,20.651-14.4,8.335-1.165,16.129.325,23.018,5.457a10.9,10.9,0,0,0,1.219.654c.641-2.572.237-5.071.307-7.532.069-2.543.015-5.088.015-7.633v-7.892c4.323-.226,8.308-.089,12.213-.095.6,2.37.774,67.189.188,71.4m-12.4-26.547c0-2.824-.031-5.65.015-8.474a3.055,3.055,0,0,0-1.174-2.691c-5.592-4.529-11.8-6.8-19.106-5.752-11.441,1.637-17.047,11.674-14.179,22.255,1.917,7.079,8.164,11.663,16,12.023,6.932.318,12.581-2.643,17.691-6.913a3.374,3.374,0,0,0,.725-2.256c.084-2.727.033-5.46.033-8.191" transform="translate(2403.951 -640.879)" fill="#222"/>
    <path id="Path_263" data-name="Path 263" d="M415.618,243.336H403.536c-.2-1.325-.4-2.685-.646-4.35-.851.361-1.612.613-2.3.993a42.293,42.293,0,0,1-17.719,5.314,27.942,27.942,0,0,1-14.783-2.926c-9.852-5.033-10.314-17.545-3.359-24.141a26.254,26.254,0,0,1,8.361-5.185,65.233,65.233,0,0,1,16.7-4.023c4.285-.526,8.589-.9,12.848-1.336.918-3.549.08-5.539-3.1-6.88a25.339,25.339,0,0,0-11.667-1.5,32.143,32.143,0,0,0-5.281.885,8.242,8.242,0,0,0-6.064,4.619c-.239.526-.854,1.2-1.34,1.241-3.923.29-7.846.188-12.094.082.255-1.234.35-2.054.6-2.826a18.559,18.559,0,0,1,10.555-11.517c5.361-2.439,11.077-2.981,16.853-2.873a42.331,42.331,0,0,1,13.363,1.975c7.492,2.621,11.225,7.51,11.3,15.431.111,11.787.044,23.577.044,35.366,0,.462-.1.922-.186,1.654m-12.545-26a23.833,23.833,0,0,0-2.967.016c-4.646.685-9.321,1.25-13.916,2.2a36.748,36.748,0,0,0-8.237,2.775,6.523,6.523,0,0,0-3.837,7.678c.7,3.184,2.665,4.8,6.517,5.133,7.837.679,14.816-1.915,21.406-5.831a2.225,2.225,0,0,0,.988-1.546c.089-3.37.046-6.742.046-10.429" transform="translate(2343.573 -633.311)" fill="#222"/>
    <path id="Path_264" data-name="Path 264" d="M211.814,243.334a91.26,91.26,0,0,1-11.216.228c-1.033-.04-1.479-.659-1.5-1.667-.022-.909-.1-1.818-.17-3.03-1.1.537-1.933.918-2.742,1.349a42.2,42.2,0,0,1-17.768,5.133,26.651,26.651,0,0,1-14.721-3.169,14.8,14.8,0,0,1-3.31-23.595,26.551,26.551,0,0,1,10.351-6.159,82.241,82.241,0,0,1,19.884-3.954c2.7-.265,5.405-.486,8.058-.723.772-3.857-.1-5.752-3.487-7.039a25.906,25.906,0,0,0-11.682-1.362,34.833,34.833,0,0,0-4.725.8c-2.767.648-5.057,1.959-6.325,4.712a2.361,2.361,0,0,1-1.625,1.256c-3.668.073-7.339-.022-11.008-.08-.153,0-.3-.2-.663-.442a16.784,16.784,0,0,1,5.424-10.09,22.445,22.445,0,0,1,11.262-5.561,51.027,51.027,0,0,1,22.963.5,23.377,23.377,0,0,1,5.21,2.127,13.971,13.971,0,0,1,7.653,12.372c.234,5.175.122,10.367.133,15.552.016,6.5.005,13.011.005,19.515v3.332m-12.762-26.16c-2.746.243-5,.358-7.229.663-2.795.383-5.6.787-8.344,1.431a54.223,54.223,0,0,0-8.62,2.6,9.3,9.3,0,0,0-4.022,3.357c-2.653,4.168-.049,9.245,4.96,9.847,8.155.98,15.417-1.707,22.277-5.778a2.208,2.208,0,0,0,.935-1.564c.086-3.372.044-6.747.044-10.559" transform="translate(2175.101 -633.335)" fill="#222"/>
    <path id="Path_265" data-name="Path 265" d="M321.832,217.424c-.425,2.877-.617,5.813-1.32,8.62a23.28,23.28,0,0,1-14.946,16.846,36.394,36.394,0,0,1-27.828-.279c-8.622-3.589-13.4-10.318-14.917-19.478a33.4,33.4,0,0,1,.588-14.283c2.486-9.3,8.333-15.513,17.5-18.338a37.641,37.641,0,0,1,22.288.029,25.7,25.7,0,0,1,18.244,23.447c.06,1.128.007,2.262.007,3.392l.38.044m-12.927-.257c-.08-.011-.162-.022-.243-.035,0-.752.044-1.506-.007-2.255-.5-7.424-4.62-12.6-11.45-14.345a20.868,20.868,0,0,0-10.6.036c-5.572,1.46-9.193,4.934-10.606,10.564a23.122,23.122,0,0,0,.476,13.332,13.642,13.642,0,0,0,10.145,9.294,24.392,24.392,0,0,0,6.7.643c7.448-.288,12.722-4.358,14.553-11.143a60.936,60.936,0,0,0,1.028-6.092" transform="translate(2262.917 -633.359)" fill="#222"/>
    <path id="Path_266" data-name="Path 266" d="M188.822,190.907h12.237v5.583c1.1-.8,1.789-1.232,2.4-1.751,5.234-4.469,11.41-6.052,18.128-5.818a31.138,31.138,0,0,1,6.143.842c7.41,1.776,11.6,6.669,12.97,14.02a38.083,38.083,0,0,1,.557,6.747c.058,9.809.026,19.619.026,29.428V243.3a54.552,54.552,0,0,1-12.7.071v-3.319c0-8.489.033-16.979-.026-25.466a42.57,42.57,0,0,0-.529-6.185c-.8-5.2-3.231-7.786-8.407-8.374-5.816-.659-11.24.464-15.76,4.589a7.006,7.006,0,0,0-2.477,5.681c.113,9.714.053,19.429.04,29.145,0,1.21-.1,2.419-.166,3.879a24.44,24.44,0,0,1-2.547.318c-2.359.04-4.717.038-7.074.009-2.853-.033-2.946-.148-3-3.1,0-.095,0-.19,0-.283q0-23.2.007-46.407c0-.922.113-1.844.186-2.957" transform="translate(2202.082 -633.31)" fill="#222"/>
    <path id="Path_267" data-name="Path 267" d="M402.836,190.13c.829-.086,1.462-.2,2.1-.206,3.288-.018,6.576-.009,10.159-.009.115,1.309.292,2.39.3,3.472.024,8.392-.036,16.784.046,25.176a44.719,44.719,0,0,0,.686,7.569c.761,4.155,3.328,6.738,7.587,7.225,6.586.756,12.554-.571,17.313-5.606a5.058,5.058,0,0,0,1.466-3.775c-.057-10.088-.029-20.178-.027-30.267v-3.574h12.706c0,17.439,0,34.811,0,52.418-1.44.108-2.539.237-3.642.261-1.886.038-3.772.024-5.657.005-3.147-.029-3.2-.089-3.277-3.113-.02-.741-.069-1.48-.122-2.559-.8.593-1.389.988-1.93,1.446-5.741,4.861-12.472,6.349-19.789,5.8a27.666,27.666,0,0,1-3.912-.564c-8.819-1.948-13.272-8-13.967-16.579-.334-4.126-.159-8.293-.17-12.441q-.03-10.748,0-21.5c0-1.01.084-2.021.137-3.18" transform="translate(2378.775 -632.473)" fill="#222"/>
    <path id="Path_268" data-name="Path 268" d="M4.617,192.382c.071-14.341,8.682-25.234,22.491-28.252a33.04,33.04,0,0,1,20.451,2.209c14.04,6.048,23.137,16.468,26.726,31.45a31.049,31.049,0,0,1-.995,18.076c-3.852,10.67-13.186,17.916-25.714,18.343-11.762.4-21.631-4.3-29.93-12.4a42.311,42.311,0,0,1-12.792-25.2c-.188-1.395-.164-2.817-.237-4.228m64.786,14.1a34.33,34.33,0,0,0-.259-3.755c-2.811-17-18.706-29.092-33.413-28.537-12.5.471-22.655,10.236-21.479,24.544.962,11.707,7.169,20.43,17.08,26.509a28.077,28.077,0,0,0,20.34,3.978c10.975-2.076,17.768-10.807,17.731-22.739" transform="translate(2050.175 -654.365)" fill="#222"/>
    <path id="Path_269" data-name="Path 269" d="M87.775,216.629c19.272-.451,38.528,15.758,41.71,35.131,2.18,13.272-3.5,24.44-12.876,30.008a29.858,29.858,0,0,1-19.579,4.067C80.4,283.606,68.512,274.635,61.5,259.45a31.9,31.9,0,0,1-2.169-22.058,27.654,27.654,0,0,1,25.338-20.756c1.033-.06,2.072-.007,3.109-.007M119.119,254.3a45.186,45.186,0,0,0-.584-5.037c-2.793-12.269-10.365-20.44-21.9-25.041a27.319,27.319,0,0,0-16.9-1.331c-10.935,2.662-18.876,12.253-16.384,26.381,2.967,16.822,19.272,27.88,33.438,27.5,12.64-.341,22.571-9.71,22.334-22.472" transform="translate(2094.465 -610.435)" fill="#222"/>
    <path id="Path_270" data-name="Path 270" d="M308.754,243.385a77.832,77.832,0,0,1-12.576.038V190.9h12.477v6.137c5.913-6.563,12.972-8.982,21.576-7.826v13.016c-.75-.055-1.367-.139-1.983-.137-3.007.007-6.081-.36-9.005.141-7.123,1.221-10.387,5.285-10.462,12.538-.077,7.357-.024,14.714-.027,22.071v6.541" transform="translate(2290.869 -633.277)" fill="#222"/>
    <path id="Path_271" data-name="Path 271" d="M405.725,181.4v71.035c-4.135.192-8.124.1-12.041.064-.63-2.306-.788-67.461-.193-71.119a76.074,76.074,0,0,1,12.235.02" transform="translate(2370.896 -639.709)" fill="#222"/>
    <path id="Path_272" data-name="Path 272" d="M97.031,168.457c12.959-.292,25.368,7.775,28.876,21.684a35.823,35.823,0,0,1-2.921,25.282c-6.977,14.033-18.018,23.179-33.641,25.705-17.585,2.842-30.89-7.05-34.461-21.574a34.87,34.87,0,0,1,2.189-22.927c6.588-14.821,17.706-24.322,33.783-27.595a54.943,54.943,0,0,1,6.174-.575M92.8,179.577a33.439,33.439,0,0,0-3.888.3C71.775,182.9,58.35,199.395,59.918,215.943c.891,9.4,5.668,15.99,14.487,19.456a24.569,24.569,0,0,0,14.466.887c12.184-2.685,20.608-10.068,25.682-21.339a27.861,27.861,0,0,0,2.01-17.133c-2.269-11.393-11.295-18.387-23.765-18.239" transform="translate(2090.832 -650.191)" fill="#222"/>
    <path id="Path_273" data-name="Path 273" d="M84.42,240.341c-.243,12.156-5.042,21.786-13.215,29.846a43.928,43.928,0,0,1-25.03,12.655A33.823,33.823,0,0,1,27.6,280.676c-12.185-5.287-19.115-17.41-17.065-31.872,2.611-18.414,18.777-34.539,38.586-37.175a32.264,32.264,0,0,1,17.992,2.342c11.442,5.259,16.915,14.44,17.3,26.37M55.865,217.477a27.689,27.689,0,0,0-3.673.022c-16.886,2.276-28.758,16.477-30.521,29.559-1.65,12.231,5.823,25.923,22.427,26.651,14.805.65,29.966-10.068,34.473-25.181a25.4,25.4,0,0,0-.6-17.43c-3.709-8.974-12.6-13.98-22.105-13.62" transform="translate(2054.769 -614.837)" fill="#222"/>
    <path id="Path_274" data-name="Path 274" d="M11.038,191.755c-.223-13.551,11.326-23.484,25.415-20.9A31.858,31.858,0,0,1,62.281,197.1c1.9,12.414-4.872,21.6-14.851,24.314a24.786,24.786,0,0,1-18.095-2.152C20,214.56,13.87,207.15,11.646,196.784c-.352-1.645-.413-3.352-.608-5.029m23.542-13.264a15.521,15.521,0,0,0-16.231,14.1c-1.468,14.321,11.875,26.821,24.725,26.061A15.864,15.864,0,0,0,58.212,204.5c1.349-13.2-10.3-26.014-23.632-26.012" transform="translate(2055.473 -648.543)" fill="#222"/>
    <path id="Path_275" data-name="Path 275" d="M114.094,250.35c.179,11.587-8.73,21.828-23.13,21.008-13.084-.745-25.055-10.849-28.4-23.537a23.1,23.1,0,0,1,.005-12.547,20.553,20.553,0,0,1,17.352-14.537c14.741-2,31.662,9.75,34.032,26.792.13.929.095,1.88.137,2.82M82.131,224.866a40.826,40.826,0,0,0-4.474.506c-8.078,1.794-14.1,8.836-12.027,19.621,1.893,9.851,10.891,17.983,20.868,19.331C98.6,265.957,107.719,257,105.735,245.2c-2.129-12.656-14.17-20.526-23.6-20.333" transform="translate(2097.301 -607.208)" fill="#222"/>
  </g>
</svg>
