<svg xmlns="http://www.w3.org/2000/svg" width="476.624" height="183.187" viewBox="0 0 476.624 183.187">
  <g id="Group_431" data-name="Group 431" transform="translate(-0.001 -0.002)">
    <path id="Path_276" data-name="Path 276" d="M216.269,49.143c0-12.081-.35-23,.245-33.862.15-2.722,2.757-6.508,5.234-7.667C228.223,4.581,235.251,2.73,243.26,0V11.016c0,41.409.115,82.819-.181,124.226-.029,4.146-2.295,11.683-3.971,11.811-6.7.515-15.577,5.15-19.387-5.524-.361-1.017-1.493-1.76-2.227-2.585-29.683,18.19-56.758,16.344-75.814-4.947-17.465-19.517-17.885-55.451-.9-76.965,17.032-21.571,44.6-24.847,75.488-7.89M186.387,64.161c-17.558.164-31.255,13.9-31.173,31.26.086,18.109,14.183,32.586,31.43,32.275,16.985-.307,31.27-14.869,31.162-31.768-.117-18.507-13.4-31.936-31.419-31.768" transform="translate(105.922 0.001)" fill="#222"/>
    <path id="Path_277" data-name="Path 277" d="M310.992,88.022H228.764c2.506,21.572,28.183,32.8,46.095,18.642,12.215-9.65,20.619-4.031,30.934-.146-8.878,23.261-40.825,34.9-69.182,25.543-28.694-9.462-43.76-40.834-34.946-72.764,7.479-27.091,37.573-43.9,66.417-37.089,31.443,7.423,49.081,33.725,42.911,65.814M282.218,66c-2.946-15.586-14.79-23.422-31.4-21.981C238.56,45.075,228.8,54.43,228.377,66Z" transform="translate(164.41 17.083)" fill="#222"/>
    <path id="Path_278" data-name="Path 278" d="M0,76.524C.155,42.923,23.511,20.7,58.457,20.891c33.949.19,56.626,23.376,56.451,57.725-.168,33.075-24.813,56.712-58.536,56.143C22.532,134.187-.156,110.749,0,76.524m88.358,2.092c-.058-19.889-13.193-34.6-30.875-34.577-17.354.022-30.567,14.2-30.541,32.777.027,20.64,12.18,34.064,30.746,33.964,18.235-.1,30.727-13.2,30.671-32.164" transform="translate(0 17.245)" fill="#222"/>
    <path id="Path_279" data-name="Path 279" d="M160.317,33.666C152.739,37.986,145.7,42,138.674,46,130.822,33.079,115.2,28.235,103.39,35.359c-2.988,1.8-6.152,5.776-6.375,8.952-.179,2.548,3.448,6.784,6.294,7.861,8.443,3.191,17.341,5.175,26.054,7.664,4.662,1.333,9.4,2.47,13.943,4.138,23.727,8.719,28.3,35.419,9.009,52.157C128.836,136.5,86.954,130.025,69.2,102.2L90.653,89.666c9.829,14.15,20.824,18.673,35.952,13.531,4.149-1.411,9.444-6.181,9.834-9.872.327-3.116-5.068-8.6-9.022-10.053-9.6-3.536-19.926-5.038-29.8-7.9C77.951,69.666,69.628,60.509,69.7,45.4,69.763,29.716,81.233,16.477,99.063,11.5c24.241-6.769,49.81,2.14,61.254,22.169" transform="translate(57.127 7.642)" fill="#222"/>
    <path id="Path_280" data-name="Path 280" d="M182.225,98.832c-33.74,21.751-92.159,21.448-119.713-.3,4-5.918,8.02-11.875,10.756-15.926,17.375,3.461,33.471,9.1,49.6,9.192,15.869.086,31.77-5.46,49.735-8.938,2.021,3.355,5.685,9.436,9.624,15.973" transform="translate(51.605 68.193)" fill="#222"/>
  </g>
</svg>
