<svg xmlns="http://www.w3.org/2000/svg" width="787.074" height="235.493" viewBox="0 0 787.074 235.493">
  <g id="Group_442" data-name="Group 442" transform="translate(-2046.362 -733.949)">
    <path id="Path_465" data-name="Path 465" d="M35,88.2c3.882,0,7.48-.557,10.757.228,1.707.409,3.462,2.971,4.141,4.927,4.5,12.969,8.71,26.041,13.026,39.074.219.656.543,1.279,1.354,3.162a46.494,46.494,0,0,0,2.494-4.8c4.66-12.928,9.455-25.814,13.762-38.861,1.32-4,3.96-4.36,6.825-3.607,2.081.545,4.822,2.177,5.478,3.977,5.139,14.082,9.844,28.321,15.169,43.937,1.409-3.033,2.507-4.971,3.233-7.038,3.813-10.853,7.406-21.787,11.321-32.6,3.548-9.81,3.79-9.817,15.467-7.61-2.4,7.025-4.692,13.973-7.146,20.86-5.11,14.333-10.628,28.531-15.3,43.006-1.63,5.054-4.824,3.9-8.176,4.294-3.935.458-5.071-1.822-6.122-4.916-4.173-12.305-8.487-24.564-12.818-36.814a34.381,34.381,0,0,0-2.522-4.5c-5.2,14.658-10.287,28.365-14.85,42.243-1.3,3.945-3.641,3.988-6.748,3.958-3.007-.028-5.7.321-7.061-3.6-7.231-20.876-14.707-41.668-22.075-62.5A16.025,16.025,0,0,1,35,88.2" transform="translate(2077.386 811.774)" fill="#212121"/>
    <path id="Path_466" data-name="Path 466" d="M55.844,95.953C50.475,94.3,46.466,92.2,42.359,91.987A82.613,82.613,0,0,0,22.167,93.1c-4.22.832-6.814,4.78-7,9.687-.183,4.865,2.315,7.921,6.521,9.272,8.114,2.6,16.388,4.7,24.565,7.11a49.16,49.16,0,0,1,8.338,3.022c8.7,4.411,12.445,10.915,11.73,19.695-.877,10.753-6.944,17.616-16.818,20.677a59.826,59.826,0,0,1-41-1.664c-8.47-3.414-10-7.651-7.012-16.488,7.406,2.7,14.631,6.357,22.275,7.791,6.156,1.155,12.909.17,19.221-.9A9.739,9.739,0,0,0,51.4,141.5c.075-4.937-3.305-7.6-7.827-8.866-8.932-2.5-17.974-4.661-26.778-7.548C5.275,121.3.114,114.7,0,104.815c-.115-10.277,6.056-19.253,16.222-23.12,11.632-4.426,23.364-3.752,34.988.074,7.553,2.484,2.864,8.678,4.633,14.184" transform="translate(2046.363 803.651)" fill="#212121"/>
    <path id="Path_467" data-name="Path 467" d="M203.02,118.708q0,15.294,0,30.591c0,7.87-.008,7.88-7.85,7.71-1.1-.024-2.2-.175-3.99-.326-.1-1.992-.275-3.95-.277-5.907-.015-18.81-.089-37.62.123-56.428.025-2.068,1.46-5.667,2.7-5.88,3.518-.6,7.661-1.837,10.125,3.041,5.948,11.768,12.241,23.362,18.435,35.005a48.24,48.24,0,0,0,2.877,4.124c6.527-12.32,12.637-23.735,18.633-35.209,4.256-8.144,4.188-8.18,14.211-6.725v68H246.6v-39.2l-1.692-.487q-5.119,9.3-10.236,18.6c-1.16,2.117-2.218,4.29-3.413,6.386-3.139,5.5-9.911,5.578-13.039.066-3.939-6.948-7.695-14-11.583-20.979a25.175,25.175,0,0,0-2.156-2.866l-1.46.479" transform="translate(2215.567 811.844)" fill="#212121"/>
    <path id="Path_468" data-name="Path 468" d="M264.466,156.008c0-21.555-.049-42.736.109-63.915.009-1.385,1.62-3.971,2.439-3.952C279.226,88.433,291.8,87.4,303.55,90c19.334,4.286,24.5,23.022,21.547,40.166-2.6,15.1-11.966,23.981-26.835,25.6-10.94,1.192-22.115.234-33.8.234m13.556-34.294H278q0,5.3,0,10.606c0,12.964,0,12.919,12.916,12.82,6.421-.049,12.292-1.6,16.463-6.712,11.94-14.624,3.7-36.384-14.812-39.214-3.285-.5-6.672-.27-10-.509-3.39-.243-4.654,1.264-4.578,4.59.14,6.137.039,12.279.039,18.419" transform="translate(2280.795 812.081)" fill="#212121"/>
    <path id="Path_469" data-name="Path 469" d="M263.569,87.71H218.416c0-3.924,0-7.933,0-11.939,0-9.3.089-18.6-.025-27.9-.042-3.33.611-5.046,4.6-4.961,11.9.249,23.809.075,35.714.051,2.556-.006,4.9.023,4.886,3.637-.06,13.545-.025,27.089-.025,41.115" transform="translate(2239.957 771.98)" fill="#212121"/>
    <path id="Path_470" data-name="Path 470" d="M218.4.049c14.516,0,28.252-.077,41.981.147,1.088.019,3.052,2.118,3.073,3.277.221,12.458.238,24.924-.041,37.38-.028,1.209-2.387,3.364-3.7,3.392-12.643.264-25.3.251-37.939.03-1.143-.021-3.211-2.037-3.23-3.152C218.325,27.763,218.4,14.4,218.4.049" transform="translate(2239.957 733.98)" fill="#212121"/>
    <path id="Path_471" data-name="Path 471" d="M220.1,65.8c0,5.948-.134,11.9.053,17.844.1,3.252-.8,4.656-4.354,4.6-12.081-.181-24.165-.134-36.246-.032-3.13.026-4.211-1.113-4.175-4.263q.2-18.121-.013-36.246c-.036-3.631,1.411-4.827,5-4.778,11.709.162,23.422.13,35.131-.013,3.335-.041,4.716,1.077,4.628,4.484-.155,6.131-.042,12.268-.042,18.4Z" transform="translate(2201.82 771.984)" fill="#212121"/>
    <path id="Path_472" data-name="Path 472" d="M421,156.957c-3.931,0-6.984.5-9.757-.162-2.1-.5-4.773-2.066-5.593-3.879-5.406-11.949-5.265-12.013-18.37-12.013-4.469,0-8.97.349-13.394-.092-4.546-.457-6.972,1.43-8.244,5.484-.168.53-.377,1.049-.585,1.564-4.029,10.049-5.835,10.93-17.472,8.249q10.138-22.318,20.211-44.49c3-6.589,6.235-13.079,8.929-19.787,1.455-3.62,4.092-4.341,7.089-3.688,2.573.56,6.258,1.551,7.154,3.439,10.085,21.268,19.725,42.749,30.032,65.375m-48.169-27.091h22.553l-11.185-26.1c-4.09,9.391-7.5,17.218-11.368,26.1" transform="translate(2354.48 811.892)" fill="#212121"/>
    <path id="Path_473" data-name="Path 473" d="M197.417,44.482c-5.576,0-11.16-.16-16.727.058-3.746.145-5.38-1.032-5.32-5.027q.26-17.564-.015-35.131C175.3.813,176.779-.034,179.986,0c11.9.119,23.794.149,35.69.015,3.386-.036,4.539,1.136,4.493,4.522q-.226,17.564,0,35.13c.043,3.631-1.305,4.965-4.907,4.848-5.942-.194-11.9-.053-17.844-.053Z" transform="translate(2201.806 733.948)" fill="#212121"/>
    <path id="Path_474" data-name="Path 474" d="M233.555,156.406c0-21.926-.06-43.321.155-64.709.013-1.241,2.252-3.5,3.49-3.524,13.215-.258,26.435-.13,39.652-.175,4.573-.017,3.5,3.277,3.684,5.912.209,2.92-.111,5.08-3.99,5-8.187-.175-16.384.072-24.571-.092-3.565-.074-5,1.128-4.929,4.814.306,15.944-1.777,12.7,12.264,13.062,5.024.128,10.061.2,15.077-.023,4.331-.189,4.077,2.469,4.143,5.448.066,3.011-.268,5.014-4.077,4.918-7.255-.185-14.524.119-21.779-.1-3.931-.119-5.776.913-5.646,5.269.477,16.173-2.292,13.12,13,13.441,4.467.094,8.936.013,13.4.021,7.21.015,7.216.019,7.08,7.485-.015.919-.108,1.837-.2,3.252Z" transform="translate(2253.392 811.953)" fill="#212121"/>
    <path id="Path_475" data-name="Path 475" d="M145.014,141.028c7.432,2.039,14.42,4.424,21.605,5.722a19.479,19.479,0,0,0,10.789-1.564,9.559,9.559,0,0,0,4.893-6.538c.2-1.92-2.3-5.242-4.35-6.065-5.814-2.334-11.994-3.775-18.067-5.435-11.847-3.243-16.789-8.874-16.61-19.112.155-8.721,6.008-16.1,14.822-18.787,8.655-2.639,17.28-2.088,25.812.392,5.229,1.52,6.059,4.377,4.228,12.666-5.546-1.205-11.07-3.179-16.648-3.354a21.563,21.563,0,0,0-12.3,3.484c-4.9,3.426-4.028,9.042,1.524,11.436,5.414,2.334,11.3,3.547,16.957,5.335a62.26,62.26,0,0,1,8.359,3.013c5.648,2.728,9.7,6.763,10.091,13.541.436,7.516-2.156,13.588-8.625,17.542-9.9,6.048-20.678,4.788-31.427,3.26a10.711,10.711,0,0,1-1.585-.528c-10.753-3.371-10.9-3.615-9.472-15.007" transform="translate(2173.365 811.52)" fill="#212121"/>
    <path id="Path_476" data-name="Path 476" d="M154.3,101.356c-7.778-.8-15.016-1.941-22.281-2.154-4.886-.143-8.714,2.679-9.287,7.874-.6,5.486,3.769,7.189,7.944,8.5,6.371,2.007,12.9,3.547,19.206,5.723,8.876,3.064,12.4,8.244,12.253,17.048-.134,8.082-4.724,14.375-12.732,17.067-11.185,3.76-22.351,3.081-33.319-.858-5.457-1.96-5.908-3.882-4.478-13.888,5.716,1.9,11.336,4.36,17.212,5.512,4.212.824,8.832.306,13.151-.374,3.658-.575,6.318-2.852,6.6-7.148.287-4.363-2.652-5.99-5.878-7.029-6.708-2.164-13.65-3.639-20.276-6.014-9.715-3.482-13.688-9.2-13.164-17.684A20.933,20.933,0,0,1,124.9,89.128,42.246,42.246,0,0,1,148,89.143c7.087,1.954,7.67,3,6.3,12.213" transform="translate(2143.168 811.537)" fill="#212121"/>
    <path id="Path_477" data-name="Path 477" d="M368.419,103.107c-12.518-3.462-25.4-9.666-35.077,4.2-6.056,8.683-5.4,24.714.849,32.23,10.091,12.141,22.119,6.448,33.76,3,2.75,9.444,1.805,12.179-7.155,13.956-18.623,3.7-34.277.8-42.087-17.659-7.6-17.952-2.126-41.594,16.142-48.593a41.657,41.657,0,0,1,29.421-.17c5.225,1.824,5.337,2.46,4.146,13.035" transform="translate(2325.942 811.488)" fill="#212121"/>
    <path id="Path_478" data-name="Path 478" d="M440.51,152.282v11.232H391.352c-.1-1.686-.3-3.45-.306-5.212-.017-23.828.1-47.658-.092-71.485-.04-4.841.888-6.908,6.4-6.767,5.318.138,7.523,1.068,7.4,7.065-.394,19.725-.027,39.463-.259,59.193-.055,4.552,1.119,6.231,5.873,6.073,9.824-.326,19.666-.1,30.142-.1" transform="translate(2392.926 804.902)" fill="#212121"/>
    <path id="Path_479" data-name="Path 479" d="M302.84,88.829a7.455,7.455,0,0,1,1.551-.645c11.811-.819,11.807-.815,11.805,10.847q-.006,25.62,0,51.24v6.372H302.84Z" transform="translate(2314.818 811.847)" fill="#212121"/>
    <path id="Path_480" data-name="Path 480" d="M108.512,156.644H95.32c-.132-1.922-.336-3.535-.338-5.148-.019-19.144.24-38.3-.153-57.431-.123-5.92,2.686-6.118,7.084-6.14,4.231-.025,6.827.2,6.735,5.8-.341,20.781-.136,41.572-.136,62.915" transform="translate(2130.422 811.888)" fill="#212121"/>
  </g>
</svg>
