<svg xmlns="http://www.w3.org/2000/svg" width="588.464" height="132.845" viewBox="0 0 588.464 132.845">
  <g id="Group_432" data-name="Group 432" transform="translate(-1436.49 -25.172)">
    <path id="Path_282" data-name="Path 282" d="M824.05,45.53c-.7,4.65-1.426,9.378-2.119,14.11-2.311,15.778-4.769,31.536-6.824,47.347a63.071,63.071,0,0,0-.316,16.213c.847,6.409,5.125,9.518,12.136,10.533,4.513.654,4.513.654,4.507,5.206,0,1.163,0,2.326,0,3.686H786.887v-8.164c1.075-.162,2.123-.4,3.184-.467,6.716-.445,10.871-4.3,12.324-10.482,1.84-7.826,3.032-15.813,4.281-23.765q2.319-14.759,4.259-29.581c1.469-11.125,3.083-22.25,4-33.426.51-6.2-2.921-10.139-8.726-11.913a44.879,44.879,0,0,0-4.666-.909V15.642h37.667c.484,3.151.821,6.375,1.49,9.529a160.3,160.3,0,0,0,13.116,37.341q10.1,20.65,20.11,41.348c1.364,2.83,2.4,5.818,3.892,9.5,2.767-5.621,5.246-10.588,7.662-15.585,3.31-6.851,6.612-13.706,9.844-20.594,7.112-15.168,15.486-29.868,19.065-46.418,1.022-4.732.155-9.869.155-15.055h38.813c0,2.306.055,4.714-.049,7.116-.02.44-.61,1.02-1.075,1.238a7.881,7.881,0,0,1-2.116.434c-8.925,1.367-12.012,5.537-11.17,14.274,1.276,13.248,3.35,26.421,5.071,39.627,1.665,12.76,3.246,25.532,4.987,38.281,1.473,10.785,5.639,15.123,16.244,17.107,1.844.345,2.691,1.041,2.519,3.014-.162,1.871-.035,3.768-.035,5.834H911.206v-8.257c1.975-.246,3.875-.36,5.723-.738,6.365-1.3,9.88-5.729,9.862-13.078-.011-4.515-.688-9.029-1.128-13.538-.845-8.659-1.641-17.326-2.625-25.97-1.229-10.794-2.627-21.571-3.987-32.655-.462.42-.831.6-.926.867-6.926,19.876-17.333,38.123-26.695,56.853-5.88,11.766-11.262,23.717-14.7,36.686-2.824,0-5.634.093-8.427-.071a2.458,2.458,0,0,1-1.754-1.508c-2.93-14.246-10.228-26.693-16.271-39.652-3.372-7.231-6.836-14.42-10.216-21.647-5.327-11.395-10.619-22.808-16.012-34.4" transform="translate(649.604 12.913)" fill="#222"/>
    <path id="Path_283" data-name="Path 283" d="M1003.074,60.424c0-8.591.029-16.749-.057-24.906a2.718,2.718,0,0,0-1.27-1.818,111.336,111.336,0,0,0-9.9-5.7c-2.581-1.236-1.893-3.31-1.73-5.117.062-.719,1.422-1.617,2.359-1.917,6.3-2.019,12.62-4,18.994-5.767a32.938,32.938,0,0,1,7.233-.862c.513-.024,1.3.916,1.55,1.572a7.1,7.1,0,0,1,.071,2.428q.006,51.642.013,103.285a27.342,27.342,0,0,0,.316,4.874c.935,5.1,3.554,6.89,8.708,6.052,1.417-.23,2.806-.619,4.385-.975v9c-10.033,1.712-19.858,5.234-30.645,5.6v-13c-1.834,1.422-3.133,2.452-4.454,3.448-11.068,8.35-23.237,12.291-36.7,7.174-10.354-3.936-17.215-11.912-21.047-22.286-5.352-14.5-3.759-28.606,4.409-41.449,7.654-12.039,18.312-20.625,33.139-22.427a51.13,51.13,0,0,1,20.481,1.847c1.207.347,2.452.559,4.14.935m0,45.454h-.013c0-3.814.223-7.644-.062-11.435a52.887,52.887,0,0,0-1.72-10.953c-3.209-10.882-11.758-17.145-23.038-16.381-9.723.661-16.512,6.128-20.1,15.13-5.363,13.443-3.286,26.43,4.025,38.422,9.082,14.9,30.014,14.257,39.534,2.718a5.942,5.942,0,0,0,1.314-3.339c.146-4.717.064-9.442.064-14.162" transform="translate(774.18 11.84)" fill="#222"/>
    <path id="Path_284" data-name="Path 284" d="M1063.5,59.764h21.583V70.187c-4.494,0-9-.049-13.511.02-2.6.04-6.017-.654-7.529.7-1.309,1.17-.526,4.761-.531,7.284q-.04,21.26-.01,42.52c0,11.466,3.392,14.911,14.9,15.177,1.174.027,2.352,0,3.8,0v8.3h-50.514v-8.038c.609-.08,1.212-.2,1.816-.226,8.7-.325,12.7-4.389,12.724-13.155.044-15.446.013-30.892.013-46.338v-6.22h-14.709c0-3.18-.105-6.064.1-8.927.036-.528,1.269-1.3,2.017-1.387,2.158-.259,4.352-.168,6.524-.323,4-.285,5.168-1.559,5.507-5.617.3-3.607.433-7.253,1.081-10.8,3.339-18.268,18.467-30.26,36.967-29.32,5.7.29,11.167,1.6,15.634,5.495,3.2,2.791,5.033,6.291,4.345,10.6-1.041,6.524-8.869,9.42-14.2,5.164-2.31-1.842-4.113-4.325-6.12-6.541-2.57-2.837-4.956-5.946-9.54-4.951a11.42,11.42,0,0,0-9.213,8.973,46.666,46.666,0,0,0-1.086,9.681c-.168,5.7-.048,11.419-.048,17.5" transform="translate(851.547 11.383)" fill="#222"/>
    <path id="Path_285" data-name="Path 285" d="M963.005,73.23h-3.374c-17.176,0-34.353.06-51.528-.062-2.744-.018-3.686.907-3.16,3.434,1.048,5.029,1.385,10.385,3.4,15.006,8.2,18.829,30.054,23.743,46.683,12.569,1.347-.905,2.622-1.919,3.879-2.846a2.012,2.012,0,0,1,.6.212c4.8,4.341,4.83,2.764.953,8.407-7.386,10.747-17.91,15.964-30.634,16.569-16.012.761-30.687-9.33-36.755-24.511a49.692,49.692,0,0,1,.094-38.417c5.515-13.465,15.274-22.819,30.1-25.2,14.017-2.253,26.7,2.85,34.853,15.61,3.766,5.895,5.672,13.891,4.894,19.234M942.474,64.7c-.966-9.958-7.063-19.267-19.2-18.233C914,47.25,906.759,57.19,906.7,64.7Z" transform="translate(734.104 31.262)" fill="#222"/>
    <path id="Path_286" data-name="Path 286" d="M1138.27,101.057c1.482,1.325,3.013,2.691,4.608,4.117a43.605,43.605,0,0,1-11.995,13.525c-12.452,9.2-25.935,10.457-39.763,3.994-8.935-4.175-14.971-11.625-18.7-20.764a48.657,48.657,0,0,1,.949-40.392c5.606-11.89,14.464-20.767,28.344-23.1,15.7-2.636,29.542,4.3,36.888,18.445a31.2,31.2,0,0,1,3.977,16.328h-3.221q-25.9,0-51.8,0c-3.4,0-3.495.015-3.264,3.505.423,6.455,1.334,12.963,4.608,18.555,8.255,14.1,27,18.892,41.443,10.915,2.682-1.482,5.161-3.328,7.926-5.132m-52.378-36.4h35.921c-1.006-10.365-7.479-18.92-18.675-18.259-9.081.537-16.686,8.158-17.246,18.259" transform="translate(882.076 31.278)" fill="#222"/>
    <path id="Path_287" data-name="Path 287" d="M1030.136,37.7v4.027c0,19.882-.048,39.766.057,59.649a29.917,29.917,0,0,0,1.265,8.264,8.661,8.661,0,0,0,8.221,6.451c1.55.113,2.077.674,2.035,2.138-.056,1.983-.013,3.969-.013,6.249-1.1.049-1.972.12-2.842.122-11.994.007-23.986-.042-35.978.051-2.1.016-3.089-.522-2.8-2.707a10.916,10.916,0,0,0,.009-1.362c.011-3.892.011-3.892,3.812-4.536a11.116,11.116,0,0,0,9.449-10.8c.181-14.8.109-29.6.035-44.4a3.017,3.017,0,0,0-1.539-2.054c-3.543-1.826-7.121-3.6-10.787-5.163-2.36-1.006-1.61-2.893-1.8-4.6-.208-1.818,1.146-1.981,2.316-2.4,6.992-2.534,13.949-5.168,20.99-7.558,2.246-.761,4.71-.878,7.578-1.378" transform="translate(824.9 31.126)" fill="#222"/>
    <path id="Path_288" data-name="Path 288" d="M1125.218,15.6q-13.538,11.035-27.076,22.067a35.288,35.288,0,0,0-4.628,3.775c-2.79,3.222-6.276,2.914-10.274,2.59.936-1.546,1.683-2.862,2.5-4.126,4.993-7.665,9.963-15.347,15.057-22.945a4.387,4.387,0,0,1,2.878-1.92c7.066-.164,14.137-.086,21.208-.086.111.215.221.429.331.644" transform="translate(894.254 12.333)" fill="#222"/>
    <path id="Path_978" data-name="Path 978" d="M1005.477,25.072a10.61,10.61,0,0,1,10.851-10.783c5.38,0,10.313,5.247,10.24,10.9-.069,5.493-5.031,10.714-10.234,10.771a10.879,10.879,0,0,1-10.857-10.884" transform="translate(830.058 11.796)" fill="#222"/>
  </g>
</svg>
