<svg xmlns="http://www.w3.org/2000/svg" width="533.481" height="227.308" viewBox="0 0 533.481 227.308">
  <g id="Group_443" data-name="Group 443" transform="translate(-3011.804 -738.041)">
    <path id="Path_481" data-name="Path 481" d="M692.244,164.249c6.052-4.771,6.848-10.557,6.822-16.746-.079-18.306-.019-36.612-.032-54.919-.006-7.4.457-14.935-5.988-20.476a6.772,6.772,0,0,1,1.42-.83c12.273-2.243,19.935,2.979,26.969,13.235,12.945,18.872,27.6,36.567,41.581,54.728.66.858.951,2.32,3.219,2.018,0-7.655.006-15.392,0-23.126-.007-8.851-.109-17.7-.013-26.554.079-7.244.809-14.6-6.926-20.355h23.134c-7.942,7.335-6.248,16.635-6.269,25.5-.051,22.126.074,44.254.106,66.383.01,6.642-.252,6.725-6.25,3.465C764,163.3,759.9,158.1,755.865,152.819q-22.142-28.99-44.237-58.018a5.568,5.568,0,0,1-.679-1.864c-2.677,1.26-2.092,2.639-2.094,3.711-.019,17.7.1,35.4-.016,53.108-.036,5.51,1.025,10.349,6.912,14.494Z" transform="translate(2660.007 796.677)" fill="#212121"/>
    <path id="Path_482" data-name="Path 482" d="M839.582,118.655c-.715,29.221-21.905,49.814-50.466,49.046-26.129-.7-45.881-22.536-45.331-50.21.513-25.9,19.676-46.929,43.773-47.682,32.11-1.005,52.743,19.483,52.024,48.846m-14.789.823a47.419,47.419,0,0,0-4.44-19.915C814.6,86.747,803.471,79.3,790.7,79.765c-14.16.521-24.692,8.055-29.444,21.736-5.212,15-3.335,29.353,5.729,42.4,9.674,13.926,26.954,18.138,40.885,9.885,12.228-7.244,16.812-18.849,16.919-34.313" transform="translate(2705.685 795.799)" fill="#212121"/>
    <path id="Path_483" data-name="Path 483" d="M590.459,87.82q-22.7-14.567-44.835-2.63C531,93.116,526.3,106.636,528.047,122.535c1.823,16.567,11.013,27.71,26.574,33.351,9.181,3.33,18.587,2.369,27.976.292,2.813-.621,3.607-1.975,3.577-4.526-.085-7.446-.161-14.894-.1-22.338.034-4.265-2.111-7.552-5.165-10.972,5.58,0,10.375.243,15.133-.074,3.984-.266,4.565,1.4,4.5,4.942-.226,12.071-.1,24.152-.052,36.228.009,2.224.553,4.435-2.675,5.056-19.52,3.754-39.072,6.335-58.131-1.751-19.212-8.151-29.461-26.192-27.712-47.654,1.671-20.538,15.4-36.671,35.684-42.319,12.482-3.477,25.041-3.3,37.707-1.62,3.4.451,5.61,1.654,5.173,5.765-.355,3.332-.072,6.729-.072,10.9" transform="translate(2500.029 795.991)" fill="#212121"/>
    <path id="Path_484" data-name="Path 484" d="M597.715,71.164c6.951,0,12.529-.036,18.106.013,3.305.028,3.441,3.016,4.258,5.075,9.374,23.65,18.629,47.348,27.967,71.012,2.417,6.122,4.724,12.356,12.2,16.829H634.3c3.994-3.812,2.383-7.717.74-11.794-2.545-6.318-4.959-12.7-7.114-19.157-.907-2.718-2.148-3.89-5.1-3.835-9.047.168-18.1.13-27.15.074-2.77-.017-4.345.879-5.256,3.746-2.064,6.491-4.665,12.811-6.822,19.276-1.338,4.011-2.432,8.183,2.611,11.9H562.657c7.218-5.1,9.621-11.9,12.2-18.627q11.715-30.589,23.492-61.155c1.6-4.148,3.414-8.225-.63-13.36m10.836,48.214c3.217,0,6.438-.109,9.651.03,3.237.142,4.49-.632,3.1-4.15-3.607-9.119-6.961-18.338-10.4-27.523-.418-1.117-.6-2.62-2.1-2.509-1.46.108-1.393,1.669-1.8,2.758-3.316,8.8-6.5,17.663-10.087,26.354-1.834,4.439-.24,5.344,3.8,5.059,2.6-.183,5.225-.034,7.84-.019" transform="translate(2545.134 797.02)" fill="#212121"/>
    <path id="Path_485" data-name="Path 485" d="M656.076,71.583c15.293-.189,30.589-.311,45.878-.624,2.66-.055,3.028,1.139,2.994,3.243-.059,3.594-.015,7.189-.015,11.913-8-6.2-16.677-4.756-25.175-4.761-4.167,0-5.689,1.741-5.469,5.874.291,5.422.326,10.877.083,16.3-.183,4.067.968,5.872,5.376,5.467,4.2-.385,8.527.4,12.662-.219,4.548-.683,5.1,1.275,4.782,4.914-.22,2.562-.042,5.159-.042,8.291-6.159-3.658-12.413-3.037-18.572-3.254-2.826-.1-4.1.881-4.088,3.73.044,9.061.034,18.121.021,27.18,0,2.037.477,3.462,2.924,3.663,13.545,1.113,27.4,4.422,39.973-5.625q-2.521,7.456-5.043,14.912c-.641,1.894-2.137,2.073-3.869,2.069-17.3-.032-34.6-.019-52.942-.019,5.335-6.016,4.864-12.677,4.852-19.229-.03-18.925-.2-37.852-.072-56.777.042-6.159-.536-11.979-4.279-17.1Z" transform="translate(2627.484 796.848)" fill="#212121"/>
    <path id="Path_486" data-name="Path 486" d="M618.881,71.337h23.607C637.519,77.657,638,84.525,638.03,91.3c.082,18.714.348,37.427.183,56.137-.042,4.512,1.281,6,5.731,5.948,7.58-.079,15.05,2.213,22.785.07,5.184-1.437,9.472-4.2,14.941-7.646-2.333,6.248-4.258,11.438-6.216,16.614-.592,1.564-1.947,1.907-3.433,1.907-17.228.006-34.455,0-52.906,0,5.237-5.456,5.033-11.26,5.014-17.072-.062-19.319-.032-38.638-.07-57.958-.013-6.154.885-12.524-5.178-17.963" transform="translate(2594.974 797.185)" fill="#212121"/>
    <path id="Path_487" data-name="Path 487" d="M669.075,63.963c-.828,3.211,1.936,4.12,3.742,5.3A48.274,48.274,0,0,0,694,77.284c3.92.445,7.506,1.332,9.317,5.5.794,1.828,2.37,3.45.8,5.5-1.6,2.1-3.915,1.968-6.073,1.334-14.088-4.143-25.976-11.464-34.322-23.9a44.417,44.417,0,0,1-5.331-11.4c-.326-1.021-.236-2.535-2.045-2.279l.036.083c1.232-3.762-.379-7.355-.74-11.006-.8-8.129-.264-16.073,3.077-23.573,1.173-2.635,2.4-5.95,5.753-6.44,2.255-.33,3,2.269,4.09,3.9,2.166,3.233.379,5.673-1.574,8.093a32.672,32.672,0,0,0-6.925,13.186,28.683,28.683,0,0,0,3.648,21.881c.315.177.639.374.966.57.138,4.222,1.145,5.225,4.349,4.333a.8.8,0,0,0,.045.9" transform="translate(2627.273 743.76)" fill="#212121"/>
    <path id="Path_488" data-name="Path 488" d="M660.889,54.374c8.67-12.187,5.756-24.852,1.185-37.376-1.34-3.669-2.315-6.8.283-10.1,1.188-1.509,1.779-4.058,4.244-3.7,2.7.39,4.081,2.726,4.5,5.124,1.155,6.516,2.632,12.992,2.232,19.721-1.405,23.667-19.13,44.6-42.251,49.7a22.366,22.366,0,0,1-4.171.589c-2.577.066-5.463.534-6.989-2.275-1.151-2.118.494-3.863,1.521-5.516,1.56-2.511,3.9-3.286,6.78-2.49a26.068,26.068,0,0,0,11.37.609,29.849,29.849,0,0,0,20.519-13.467c.24-.268.5-.543.773-.811" transform="translate(2595.553 736.75)" fill="#212121"/>
    <path id="Path_489" data-name="Path 489" d="M681.823,49.45c4.593,2.649,9.323,5.092,13.741,8a31.126,31.126,0,0,1,9.928,10.37c1.311,2.264,3.1,5.32-.091,6.738-2.622,1.164-6.468,1.888-8.7-1.564a50.5,50.5,0,0,1-3.163-6.459c-7.412-16.144-30.964-21.343-43.969-12.177-5.778,4.069-11.358,8.274-15.348,14.247a16.89,16.89,0,0,1-2.686,3.237c-2.317,2.075-10.221,2.509-11.269.489-1.968-3.792,1.1-5.969,3.344-8.14,13.455-13.037,29.246-19.474,48.2-16.744,1,.143,1.967.458,2.811-.374l-.035-.051c1.731,2.916,4.623,2.384,7.312,2.456Z" transform="translate(2595.639 775.461)" fill="#212121"/>
    <path id="Path_490" data-name="Path 490" d="M649.361,48.322c.741-.713.294-1.332-.011-2.094-.286-.713-.194-1.175-.464-.415s-1.168.379-.57-.16c.036-.034.176.064.269.074,1.185.132,2.368.355,3.555.372,17.665.234,32.822,6.657,45.577,18.721,2.356,2.23,6.778,4.435,3.23,8.757-2.031,2.471-10.4,1.013-12.47-2.275a41.913,41.913,0,0,0-13.718-13.292c-5.569-3.45-10.885-7.987-18.185-7.31l.064.028c-1.509-3.584-4.554-2.594-7.312-2.456Z" transform="translate(2620.889 774.212)" fill="#212121"/>
    <path id="Path_491" data-name="Path 491" d="M660.956,59.922c-.2.749-.157,1.873-.634,2.171-1.2.753-.83-.679-1.085-1.13-9.951-17.555-11.694-35.95-5.533-55.118.573-1.781,1.719-3.394,3.656-3.648,2.121-.277,2.981,1.63,4.028,3.094,2.8,3.924,2.084,7.648.239,11.87-6.122,14.009-5.7,28.346-1.209,42.724.028.091.373.083.572.123l-.034-.085" transform="translate(2622.666 735.871)" fill="#212121"/>
    <path id="Path_492" data-name="Path 492" d="M662.656,37.656C652,53.046,637.836,62.01,620.3,65.939a4.729,4.729,0,0,1-4.935-1.515c-1.317-1.611-.034-3.047.632-4.428,1.613-3.345,3.559-6.471,7.838-6.537,12.943-.2,23.3-6.527,33.294-13.8,1.347-.979,2.275-2.918,5.525-2.005" transform="translate(2591.353 767.117)" fill="#212121"/>
    <path id="Path_493" data-name="Path 493" d="M647.108,46.758c-.272.268-.534.543-.774.811a2.682,2.682,0,0,1-1.865-2.8,36.779,36.779,0,0,0-8.281-23.339c-2.886-3.662.453-7.059,3.43-9,3.369-2.2,4.362,1.439,5.58,3.528,4.624,7.923,5.071,16.359,2.7,25.048-.519,1.9-1.894,3.641-.788,5.748" transform="translate(2609.334 744.366)" fill="#212121"/>
    <path id="Path_494" data-name="Path 494" d="M660.749,37.734c-.326-.2-.651-.392-.967-.568-.276-3.316,1.525-2.549,3.262-1.566,7,3.962,14.273,5.876,22.407,4.1,3.386-.736,7.461,3.609,7.2,7.2-.3,4.114-3.486,3.586-6.287,3.624-8.008.109-14.482-4.058-21.213-7.553a.8.8,0,0,1-.051-.909c-1.332-1.564-2.175-3.616-4.35-4.333" transform="translate(2631.206 764.758)" fill="#212121"/>
    <path id="Path_495" data-name="Path 495" d="M656.667,50A39.86,39.86,0,0,0,641.5,69.711c-1.583,4.469-6.384,3.377-9.448,2.079-3.275-1.387-1.4-4.307-.021-6.625C637.565,55.848,645.256,49.99,656.667,50" transform="translate(2605.038 778.267)" fill="#212121"/>
    <path id="Path_496" data-name="Path 496" d="M655.87,71.325l-.106-.138.125.192-.019-.055" transform="translate(2627.67 797.052)" fill="#212121"/>
  </g>
</svg>
